<svg width="96" height="96" xmlns="http://www.w3.org/2000/svg" xmlns:xlink="http://www.w3.org/1999/xlink" xml:space="preserve" overflow="hidden"><g transform="translate(-335 -108)"><path d="M421 179 418 182 349 182 345 178 345 158 349 154 418 154 421 157 421 179ZM339 148 339 188 427 188 427 148 339 148Z" fill="#6AAC90"/><path d="M391 168C391 173.523 387.418 178 383 178 378.582 178 375 173.523 375 168 375 162.477 378.582 158 383 158 387.418 158 391 162.477 391 168Z" fill="#6AAC90"/><path d="M361 168C361 169.657 359.657 171 358 171 356.343 171 355 169.657 355 168 355 166.343 356.343 165 358 165 359.657 165 361 166.343 361 168Z" fill="#6AAC90"/><path d="M411 168C411 169.657 409.657 171 408 171 406.343 171 405 169.657 405 168 405 166.343 406.343 165 408 165 409.657 165 411 166.343 411 168Z" fill="#6AAC90"/><path d="M400.9 128.7 402.4 132.5 408.4 131.3 404.2 120.8 350.4 142.8 381.2 136.7Z" fill="#6AAC90"/><path d="M395.7 144 411.5 140.9 412.2 144 418.3 144 416.3 133.8 365 144Z" fill="#6AAC90"/></g></svg>