<svg width="96" height="96" xmlns="http://www.w3.org/2000/svg" xmlns:xlink="http://www.w3.org/1999/xlink" xml:space="preserve" overflow="hidden"><g transform="translate(-335 -221)"><path d="M425.885 247.5C425.349 245.357 423.178 244.055 421.035 244.59 418.106 245.54 415.244 246.685 412.469 248.018 412.375 245.803 412.262 243.564 412.131 241.302 412.013 239.096 410.129 237.403 407.923 237.521 405.717 237.639 404.025 239.523 404.142 241.729 404.143 241.743 404.144 241.758 404.145 241.773 404.345 245.129 404.493 248.442 404.607 251.682 401.894 252.982 398.968 254.412 395.907 255.938 396.022 251.238 396.218 246.455 396.528 241.803 396.695 239.6 395.046 237.679 392.843 237.511 390.64 237.344 388.719 238.994 388.551 241.197 388.549 241.222 388.547 241.247 388.546 241.272 388.133 247.46 387.918 253.861 387.827 260.028 384.822 261.571 381.761 263.169 378.705 264.789 378.442 257.089 378.047 249.425 377.454 242.908 377.264 240.707 375.325 239.077 373.124 239.268 370.923 239.458 369.293 241.396 369.484 243.597 369.485 243.609 369.486 243.621 369.487 243.633 370.164 251.079 370.577 260.226 370.828 269.033 367.183 271.027 363.628 273.016 360.282 274.948 360.572 255.248 361.244 246.213 361.831 242.105 362.143 239.918 360.624 237.892 358.436 237.579 356.25 237.267 354.223 238.787 353.911 240.974 352.987 247.44 352.421 260.448 352.22 279.74 348.543 281.946 344.981 284.339 341.549 286.909 339.805 288.265 339.491 290.779 340.848 292.522 342.204 294.266 344.717 294.58 346.461 293.224 347.986 292.037 349.917 290.692 352.154 289.233 352.143 291.736 352.138 294.325 352.138 297 352.138 299.209 353.929 301 356.138 301 358.347 301 360.138 299.209 360.138 297 360.138 292.4 360.154 288.174 360.182 284.271 363.54 282.282 367.209 280.191 371.037 278.071 371.177 285.871 371.205 292.749 371.205 297.001 371.205 299.21 372.996 301.001 375.205 301.001 377.414 301.001 379.205 299.21 379.205 297.001 379.205 291.028 379.157 282.669 378.958 273.755 381.89 272.183 384.85 270.622 387.778 269.099 387.827 284.742 388.534 297.045 388.545 297.236 388.67 299.348 390.418 300.998 392.534 301 392.613 301 392.693 301 392.773 300.993 394.978 300.863 396.66 298.971 396.531 296.766 396.519 296.566 395.698 282.26 395.779 264.993 398.943 263.393 401.989 261.875 404.834 260.483 405.172 280.935 404.16 296.534 404.147 296.734 404 298.938 405.668 300.844 407.872 300.991 407.873 300.991 407.873 300.991 407.873 300.991 407.963 300.997 408.053 301 408.142 301 410.246 300.998 411.989 299.366 412.129 297.266 412.144 297.051 413.298 279.282 412.758 256.684 416.07 255.027 419.482 253.579 422.975 252.348 425.117 251.812 426.419 249.642 425.885 247.5Z" fill="#6AAC90"/></g></svg>